<svg width="54" height="53" viewBox="0 0 54 53" fill="none" xmlns="http://www.w3.org/2000/svg">
<ellipse cx="27" cy="26.4706" rx="27" ry="26.4706" fill="black"/>
<path d="M26.7952 46.0691C23.7818 46.0691 20.7683 45.2089 18.1367 43.4833C15.4439 41.7169 13.3772 39.2074 12.1658 36.2246C10.9544 33.2418 10.6794 29.9992 11.3768 26.8533L14.2274 14H39.3681L42.2187 26.8533C42.9161 29.9992 42.6412 33.2366 41.4297 36.2246C40.2182 39.2075 38.1515 41.7221 35.4588 43.4833C32.8221 45.2089 29.8086 46.0691 26.7952 46.0691H26.7952ZM16.6756 17.06L14.3544 27.5156C13.2142 32.6517 15.408 38.042 19.8112 40.9284C21.9339 42.318 24.3669 43.0154 26.795 43.0154C29.2282 43.0154 31.6563 42.318 33.7789 40.9284C38.182 38.0422 40.3708 32.6516 39.2357 27.5156L36.9144 17.06H16.6756Z" fill="white"/>
<path d="M25 45H28V53H25V45Z" fill="white"/>
<path d="M26.4031 32.6768L22.5752 21.7735L26.8052 22.369L25.4512 15.8433L28.4392 15.2223L30.6789 25.9981L27.1207 25.4942L29.2841 31.6687L26.4031 32.6768Z" fill="white"/>
</svg>
